<?xml version="1.0" encoding="UTF-8"?>
<svg id="Capa_2" data-name="Capa 2" xmlns="http://www.w3.org/2000/svg" viewBox="0 0 795.96 132.25">
  <defs>
    <style>
      .cls-1 {
        fill: #212e33;
      }
    </style>
  </defs>
  <g id="Capa_1-2" data-name="Capa 1">
    <g>
      <g>
        <path class="cls-1" d="M459.63,38.7c8.48,0,16.24,3.19,22.24,8.47v9.53c-4.23-10.09-12.14-16.83-22.24-16.83-15.36,0-26.32,15.57-26.32,34.77s10.97,34.77,26.32,34.77c10.11,0,18.02-6.74,22.24-16.83v9.53c-6.01,5.28-13.77,8.47-22.24,8.47-19.06,0-34.5-16.09-34.5-35.94s15.45-35.94,34.5-35.94Z"/>
        <path class="cls-1" d="M528.35,94.37v15.04h-41.33c3.12-.27,4.24-2.62,4.24-8.08v-53.39c0-5.45-1.12-7.8-4.24-8.08h38.23l2.13,15.04c-1.21-6.89-3.71-13.87-9.21-13.87h-19.87v33.01h11.93c4.71,0,6.16-6.98,7.37-13.87v28.91c-1.21-6.89-2.66-13.87-7.37-13.87h-11.93v33.01h22.97c5.51,0,5.87-6.98,7.08-13.87Z"/>
        <path class="cls-1" d="M595.63,74.65c0,19.85-14.26,35.94-31.85,35.94s-31.85-16.09-31.85-35.94,14.26-35.94,31.85-35.94,31.85,16.09,31.85,35.94ZM587.45,74.65c0-19.2-9.49-34.77-23.67-34.77s-23.67,15.57-23.67,34.77,9.49,34.77,23.67,34.77,23.67-15.57,23.67-34.77Z"/>
        <path class="cls-1" d="M661.03,39.92c8.48,0,16.24,3.19,22.24,8.47v9.53c-4.23-10.09-12.14-16.83-22.24-16.83-15.36,0-26.32,15.57-26.32,34.77s10.97,34.77,26.32,34.77c10.11,0,18.02-6.74,22.24-16.83v9.53c-6.01,5.28-13.77,8.47-22.24,8.47-19.06,0-34.5-16.09-34.5-35.94s15.45-35.94,34.5-35.94Z"/>
        <path class="cls-1" d="M703.45,110.64h-15.52c3.12-.27,4.24-2.62,4.24-8.08v-52.22c0-5.45-1.12-6.01-4.24-6.28l11.28-2.97v61.47c0,5.45,1.12,7.8,4.24,8.08Z"/>
        <path class="cls-1" d="M737.19,110.64v-5.93c-2.1,4.55-7.22,7.1-12.43,7.1-7.45,0-13.92-4.77-13.92-14.01v-25.42c0-5.45-1.12-6.01-4.24-6.28l11.28-2.97v35.56c-4,16.98,18.91,14.14,19.32,1.68v-28c0-5.45-1.12-6.01-4.24-6.28l11.28-2.97v38.26c0,5.45,1.12,6.01,4.24,6.28l-11.28,2.97Z"/>
        <path class="cls-1" d="M795.96,86.89c0,13.77-9.88,24.93-22.51,24.93-9.68,0-14.45-6.71-19.49-1.17v-60.3c0-5.45-1.12-6.01-4.24-6.28l11.28-2.97v28.6c2.57-4.61,6.59-7.74,12.46-7.74,12.63,0,22.51,11.16,22.51,24.93ZM787.78,86.89c0-13.12-4.91-23.76-14.69-23.76-5.67,0-9.71,3.41-12.09,8.94v25.18c0,7.1,5.33,13.39,12.09,13.39,9.78,0,14.69-10.64,14.69-23.76Z"/>
      </g>
      <g id="Logo_ENAE" data-name="Logo ENAE">
        <g>
          <path class="cls-1" d="M54.48,104.81H16.82c-1.12,0-2.02-.91-2.02-2.02v-17.52c0-1.12.91-2.02,2.02-2.02h30.38c1.12,0,2.03-.91,2.03-2.02v-8.18c0-1.12-.91-2.02-2.03-2.02h-30.38c-1.12,0-2.02-.91-2.02-2.02v-15.91c0-1.12.91-2.02,2.02-2.02h36.45c1.12,0,2.02-.91,2.02-2.02v-8.29c0-1.12-.91-2.02-2.02-2.02H2.02c-1.12,0-2.02.91-2.02,2.02v74.4c0,1.12.91,2.02,2.02,2.02h52.45c1.12,0,2.02-.91,2.02-2.02v-8.29c0-1.12-.91-2.02-2.02-2.02Z"/>
          <path class="cls-1" d="M61.89,117.15h10.01c1.12,0,2.02-.91,2.02-2.02v-48.69c0-2.05,2.71-2.8,3.76-1.04l30.45,50.77c.37.61,1.03.98,1.74.98h11.01c1.12,0,2.02-.91,2.02-2.02V40.73c0-1.12-.91-2.02-2.02-2.02h-10.01c-1.12,0-2.03.91-2.03,2.02v45.11c0,2.05-2.71,2.8-3.76,1.04l-28.26-47.19c-.37-.61-1.03-.98-1.74-.98h-13.2c-1.12,0-2.02.91-2.02,2.02v74.4c0,1.12.91,2.02,2.02,2.02Z"/>
          <path class="cls-1" d="M169.88,40.03c-.29-.8-1.05-1.33-1.9-1.33h-12.33c-.85,0-1.61.53-1.9,1.33l-27.37,74.4c-.49,1.32.49,2.72,1.9,2.72h10.82c.86,0,1.62-.54,1.91-1.35l5.35-15.07c.29-.81,1.05-1.35,1.91-1.35h26.36c.86,0,1.62.54,1.91,1.35l5.35,15.07c.29.81,1.05,1.35,1.91,1.35h11.43c1.41,0,2.39-1.4,1.9-2.72l-27.25-74.4ZM169.26,87.27h-15.62c-1.38,0-2.36-1.35-1.92-2.66l7.85-23.69c.61-1.85,3.24-1.85,3.85,0l7.76,23.69c.43,1.31-.55,2.66-1.92,2.66Z"/>
          <path class="cls-1" d="M255.07,104.81h-37.66c-1.12,0-2.02-.91-2.02-2.02v-17.52c0-1.12.91-2.02,2.02-2.02h30.38c1.12,0,2.02-.91,2.02-2.02v-8.18c0-1.12-.91-2.02-2.02-2.02h-30.38c-1.12,0-2.02-.91-2.02-2.02v-15.91c0-1.12.91-2.02,2.02-2.02h36.45c1.12,0,2.02-.91,2.02-2.02v-8.29c0-1.12-.91-2.02-2.02-2.02h-51.24c-1.12,0-2.02.91-2.02,2.02v74.4c0,1.12.91,2.02,2.02,2.02h52.45c1.12,0,2.02-.91,2.02-2.02v-8.29c0-1.12-.91-2.02-2.02-2.02Z"/>
        </g>
      </g>
      <g>
        <path class="cls-1" d="M405.84,71c-3.69-7.96-11.29-15.18-20.36-18.21-2.9-.97-5.98-1.38-9.07-1.38h-17.3c12.78-4.5,22.63-13.57,28.78-26.63,5.71-12.13,6.24-23.23,6.26-23.7l-.63-.02c.04-.35.08-.7.1-1.05-.38.35-.77.69-1.18,1.02h-.31s0,.1-.02.26c-3.58,2.75-8.21,4.4-13.28,4.4s-9.52-1.59-13.07-4.24c-2.73,5.49-6.88,10.27-12.03,13.96,4.23,3.22,9.68,5.16,15.64,5.16,9.52,0,17.76-4.96,21.74-12.17-.84,4.26-2.36,9.91-5.1,15.71-6.95,14.74-18.24,23.91-33.58,27.29h-.9s.01-35.58.01-35.58c-4.76,1.74-11.1,2.71-16.55,2.71-1.67,0-3.31-.1-4.93-.27v77.95c0,1.51-.24,3.01-.77,4.44-1.52,4.08-3.8,7.84-6.69,11.15,3.62-.73,7.06-1.89,10.25-3.42,7.09-3.4,12.95-8.59,16.81-14.93,1.26-2.06,1.86-4.41,1.86-6.77v-16.21h2.12s0,.03,0,.05h10.4c8.26,0,14.95-6.06,14.95-13.53v-2.79c0-.6.83-.87,1.26-.41,2.99,3.21,5.49,6.22,7.59,9.84,9.18,15.73,6.89,35.24-4.1,49.84-7.33,9.69-20.51,16.03-33.75,15.85-6.71-.01-13.39-1.58-19.37-4.3-4.33-2.04-8.11-5.01-11.35-8.3-14.18-14.84-21.3-39.91-19.34-59.07,3.01-27.31,30.35-41.14,55.24-52.23l-.13-.63c-7.23-.58-14.5-.2-21.76.94-23.25,3.34-40.64,15.47-48.34,36.47-10.99,27.99-.86,60.25,24.15,77.46,5.91,4.13,12.4,7.67,19.52,9.79,20.78,5.52,45.35,3.21,62.72-9.38,15.67-11.18,22.6-32.15,14.51-49.05Z"/>
        <path class="cls-1" d="M365.31,114.74c.74.28,1.47.57,2.18.89.69.31,1.53.1,1.98-.47l12.81-16.34,2.59-3.3-1.79-1.26c-.6-.42-1.46-.31-1.9.25l-2.03,2.58c-.31.4-.85.57-1.38.46-4.54-.97-9.37-1.17-14.26-.39-11.75,1.87-21.09,8.8-25.84,17.86,2.53-1,5.21-1.78,8.05-2.23,6.86-1.09,13.6-.29,19.6,1.95Z"/>
      </g>
    </g>
  </g>
</svg>