<?xml version="1.0" encoding="UTF-8"?>
<svg id="Capa_2" data-name="Capa 2" xmlns="http://www.w3.org/2000/svg" viewBox="0 0 499.11 522.99">
  <defs>
    <style>
      .cls-1 {
        fill: #212e33;
      }
    </style>
  </defs>
  <g id="Capa_1-2" data-name="Capa 1">
    <g>
      <rect class="cls-1" x="180.31" y="521.78" width="138.5" height="1.2"/>
      <g>
        <path class="cls-1" d="M46.29,377.01c11.37,0,21.78,4.27,29.84,11.36v12.79c-5.67-13.53-16.28-22.58-29.84-22.58-20.6,0-35.31,20.88-35.31,46.65s14.71,46.65,35.31,46.65c13.56,0,24.17-9.05,29.84-22.58v12.79c-8.06,7.09-18.47,11.36-29.84,11.36-25.56,0-46.29-21.59-46.29-48.22s20.72-48.22,46.29-48.22Z"/>
        <path class="cls-1" d="M138.47,451.7v20.18h-55.44c4.19-.37,5.69-3.52,5.69-10.84v-71.62c0-7.32-1.5-10.47-5.69-10.84h51.28l2.86,20.18c-1.63-9.25-4.97-18.61-12.36-18.61h-26.65v44.29h16.01c6.32,0,8.27-9.36,9.89-18.61v38.79c-1.63-9.25-3.57-18.61-9.89-18.61h-16.01v44.29h30.81c7.39,0,7.88-9.36,9.5-18.61Z"/>
        <path class="cls-1" d="M228.73,425.23c0,26.63-19.13,48.22-42.73,48.22s-42.73-21.59-42.73-48.22,19.13-48.22,42.73-48.22,42.73,21.59,42.73,48.22ZM217.75,425.23c0-25.76-12.74-46.65-31.76-46.65s-31.76,20.88-31.76,46.65,12.74,46.65,31.76,46.65,31.76-20.88,31.76-46.65Z"/>
        <path class="cls-1" d="M318.11,377.01c11.37,0,21.78,4.27,29.84,11.36v12.79c-5.67-13.53-16.28-22.58-29.84-22.58-20.6,0-35.31,20.88-35.31,46.65s14.71,46.65,35.31,46.65c13.56,0,24.17-9.05,29.84-22.58v12.79c-8.06,7.09-18.47,11.36-29.84,11.36-25.56,0-46.29-21.59-46.29-48.22s20.72-48.22,46.29-48.22Z"/>
        <path class="cls-1" d="M375,471.88h-20.82c4.19-.37,5.69-3.52,5.69-10.84v-70.05c0-7.32-1.5-8.06-5.69-8.43l15.13-3.98v82.46c0,7.32,1.5,10.47,5.69,10.84Z"/>
        <path class="cls-1" d="M420.27,471.88v-7.95c-2.82,6.1-9.68,9.52-16.68,9.52-9.99,0-18.67-6.39-18.67-18.8v-34.1c0-7.32-1.5-8.06-5.69-8.43l15.13-3.98v47.7c-5.36,22.78,25.37,18.97,25.91,2.26v-37.56c0-7.32-1.5-8.06-5.69-8.43l15.13-3.98v51.33c0,7.32,1.5,8.06,5.69,8.43l-15.13,3.98Z"/>
        <path class="cls-1" d="M499.11,440.01c0,18.47-13.25,33.44-30.2,33.44-12.99,0-19.38-9-26.15-1.57v-80.89c0-7.32-1.5-8.06-5.69-8.43l15.13-3.98v38.37c3.45-6.18,8.84-10.38,16.71-10.38,16.95,0,30.2,14.97,30.2,33.44ZM488.14,440.01c0-17.6-6.59-31.87-19.71-31.87-7.61,0-13.02,4.58-16.23,11.99v33.78c0,9.53,7.16,17.97,16.23,17.97,13.12,0,19.71-14.27,19.71-31.87Z"/>
      </g>
      <g id="Logo_ENAE" data-name="Logo ENAE">
        <g>
          <path class="cls-1" d="M175.48,326.78h-37.66c-1.12,0-2.02-.91-2.02-2.02v-17.52c0-1.12.91-2.02,2.02-2.02h30.38c1.12,0,2.03-.91,2.03-2.02v-8.18c0-1.12-.91-2.02-2.03-2.02h-30.38c-1.12,0-2.02-.91-2.02-2.02v-15.91c0-1.12.91-2.02,2.02-2.02h36.45c1.12,0,2.02-.91,2.02-2.02v-8.29c0-1.12-.91-2.02-2.02-2.02h-51.24c-1.12,0-2.02.91-2.02,2.02v74.4c0,1.12.91,2.02,2.02,2.02h52.45c1.12,0,2.02-.91,2.02-2.02v-8.29c0-1.12-.91-2.02-2.02-2.02Z"/>
          <path class="cls-1" d="M182.9,339.12h10.01c1.12,0,2.02-.91,2.02-2.02v-48.69c0-2.05,2.71-2.8,3.76-1.04l30.45,50.77c.37.61,1.03.98,1.74.98h11.01c1.12,0,2.02-.91,2.02-2.02v-74.4c0-1.12-.91-2.02-2.02-2.02h-10.01c-1.12,0-2.03.91-2.03,2.02v45.11c0,2.05-2.71,2.8-3.76,1.04l-28.26-47.19c-.37-.61-1.03-.98-1.74-.98h-13.2c-1.12,0-2.02.91-2.02,2.02v74.4c0,1.12.91,2.02,2.02,2.02Z"/>
          <path class="cls-1" d="M290.89,262c-.29-.8-1.05-1.33-1.9-1.33h-12.33c-.85,0-1.61.53-1.9,1.33l-27.37,74.4c-.49,1.32.49,2.72,1.9,2.72h10.82c.86,0,1.62-.54,1.91-1.35l5.35-15.07c.29-.81,1.05-1.35,1.91-1.35h26.36c.86,0,1.62.54,1.91,1.35l5.35,15.07c.29.81,1.05,1.35,1.91,1.35h11.43c1.41,0,2.39-1.4,1.9-2.72l-27.25-74.4ZM290.27,309.24h-15.62c-1.38,0-2.36-1.35-1.92-2.66l7.85-23.69c.61-1.85,3.24-1.85,3.85,0l7.76,23.69c.43,1.31-.55,2.66-1.92,2.66Z"/>
          <path class="cls-1" d="M376.08,326.78h-37.66c-1.12,0-2.02-.91-2.02-2.02v-17.52c0-1.12.91-2.02,2.02-2.02h30.38c1.12,0,2.02-.91,2.02-2.02v-8.18c0-1.12-.91-2.02-2.02-2.02h-30.38c-1.12,0-2.02-.91-2.02-2.02v-15.91c0-1.12.91-2.02,2.02-2.02h36.45c1.12,0,2.02-.91,2.02-2.02v-8.29c0-1.12-.91-2.02-2.02-2.02h-51.24c-1.12,0-2.02.91-2.02,2.02v74.4c0,1.12.91,2.02,2.02,2.02h52.45c1.12,0,2.02-.91,2.02-2.02v-8.29c0-1.12-.91-2.02-2.02-2.02Z"/>
        </g>
      </g>
      <g>
        <path class="cls-1" d="M338.62,110.32c-5.73-12.37-17.54-23.59-31.63-28.29-4.5-1.5-9.29-2.15-14.09-2.15h-26.88c19.87-7,35.17-21.08,44.73-41.39,8.87-18.85,9.69-36.1,9.72-36.82l-.98-.03c.07-.54.12-1.09.16-1.64-.59.55-1.2,1.07-1.83,1.58l-.49-.02s0,.17-.03.43c-5.57,4.27-12.76,6.84-20.63,6.84s-14.79-2.47-20.32-6.59c-4.24,8.53-10.69,15.96-18.69,21.69,6.57,5,15.04,8.02,24.3,8.02,14.8,0,27.59-7.7,33.79-18.91-1.31,6.62-3.67,15.39-7.93,24.42-10.81,22.9-28.35,37.15-52.18,42.41h-1.4s.02-55.29.02-55.29c-7.4,2.71-17.24,4.21-25.72,4.21-2.59,0-5.14-.16-7.66-.43v121.13c0,2.34-.37,4.68-1.2,6.9-2.36,6.34-5.91,12.18-10.4,17.32,5.62-1.14,10.97-2.94,15.93-5.32,11.01-5.28,20.11-13.34,26.13-23.19,1.96-3.21,2.89-6.85,2.89-10.51v-25.19h3.29s0,.05.01.07h16.15c12.83,0,23.23-9.41,23.23-21.02v-4.34c0-.93,1.29-1.35,1.95-.64,4.65,4.99,8.52,9.66,11.79,15.29,14.26,24.45,10.7,54.76-6.37,77.44-11.39,15.06-31.87,24.91-52.45,24.63-10.43-.02-20.8-2.45-30.09-6.68-6.73-3.16-12.6-7.78-17.64-12.9-22.03-23.05-33.1-62.01-30.04-91.79,4.67-42.43,47.16-63.92,85.84-81.16l-.21-.98c-11.23-.89-22.53-.31-33.82,1.45-36.13,5.19-63.15,24.04-75.11,56.68-17.08,43.5-1.33,93.62,37.52,120.36,9.18,6.41,19.27,11.91,30.34,15.21,32.29,8.58,70.47,4.98,97.45-14.58,24.34-17.37,35.12-49.95,22.55-76.22Z"/>
        <path class="cls-1" d="M275.65,178.29c1.15.43,2.28.89,3.39,1.38,1.08.48,2.38.16,3.08-.73l19.9-25.38,4.02-5.12-2.79-1.96c-.93-.65-2.27-.48-2.95.39l-3.15,4.02c-.48.62-1.33.89-2.14.72-7.06-1.51-14.56-1.82-22.16-.61-18.26,2.91-32.78,13.67-40.16,27.75,3.93-1.55,8.1-2.76,12.51-3.47,10.67-1.7,21.13-.45,30.45,3.02Z"/>
      </g>
    </g>
  </g>
</svg>