<?xml version="1.0" encoding="UTF-8"?>
<svg id="Capa_2" data-name="Capa 2" xmlns="http://www.w3.org/2000/svg" viewBox="0 0 589.85 606.13">
  <defs>
    <style>
      .cls-1 {
        fill: #fff;
      }
    </style>
  </defs>
  <g id="Capa_1-2" data-name="Capa 1">
    <g>
      <path class="cls-1" d="M574.25,325.38c-16.89-36.49-51.72-69.58-93.29-83.44-13.27-4.43-27.41-6.34-41.56-6.34l-79.3-.03c58.59-20.61,103.73-62.16,131.92-122.04,26.17-55.59,28.58-106.46,28.67-108.6l-2.88-.1c.2-1.6.36-3.2.47-4.82-1.73,1.62-3.55,3.16-5.41,4.65l-1.44-.05s-.02.49-.08,1.26c-16.42,12.58-37.65,20.19-60.85,20.19s-43.63-7.3-59.92-19.45c-12.5,25.15-31.52,47.06-55.13,63.98,19.38,14.75,44.37,23.65,71.68,23.65,43.64,0,81.38-22.71,99.65-55.77-3.86,19.52-10.83,45.4-23.4,72.02-31.87,67.54-83.61,109.56-153.9,125.08h-4.14s.05-163.07.05-163.07c-21.83,7.98-50.85,12.42-75.85,12.42-7.65,0-15.17-.46-22.59-1.26v357.27c0,6.9-1.09,13.8-3.53,20.34-6.97,18.69-17.43,35.93-30.67,51.1,16.59-3.35,32.36-8.67,46.98-15.69,32.47-15.59,59.33-39.36,77.06-68.41,5.78-9.46,8.52-20.2,8.52-31.01v-74.29h9.7c.01.07.03.14.04.22h47.65c37.84,0,68.52-27.75,68.52-61.99v-12.79c0-2.75,3.8-3.98,5.75-1.88,13.7,14.73,25.14,28.48,34.78,45.09,42.07,72.11,31.56,161.52-18.78,228.41-33.6,44.41-94.01,73.48-154.69,72.63-30.76-.06-61.36-7.24-88.76-19.72-19.85-9.33-37.15-22.94-52.02-38.05-64.97-68-97.64-182.89-88.62-270.72,13.77-125.15,139.09-188.52,253.17-239.39l-.62-2.88c-33.12-2.64-66.45-.9-99.75,4.29C135.16,41.49,55.46,97.09,20.19,193.34c-50.36,128.29-3.93,276.14,110.66,355,27.09,18.92,56.84,35.14,89.47,44.86,95.23,25.32,207.85,14.7,287.43-43.01,71.8-51.23,103.59-147.33,66.5-224.81Z"/>
      <path class="cls-1" d="M388.53,525.85c3.38,1.26,6.72,2.61,9.99,4.06,3.18,1.41,7.03.46,9.08-2.15l58.7-74.87,11.85-15.11-8.22-5.79c-2.74-1.93-6.7-1.4-8.71,1.16l-9.29,11.84c-1.42,1.82-3.92,2.63-6.31,2.11-20.83-4.47-42.93-5.37-65.35-1.8-53.85,8.58-96.67,40.32-118.45,81.85,11.6-4.59,23.88-8.15,36.89-10.23,31.46-5.01,62.33-1.34,89.82,8.92Z"/>
    </g>
  </g>
</svg>